HIERARCHY
ROOT hip
{
  OFFSET 0 0 0
  CHANNELS 6 Xposition Yposition Zposition Zrotation Yrotation Xrotation
  JOINT abdomen
  {
    OFFSET 0 20.6881 -0.73152
    CHANNELS 3 Zrotation Xrotation Yrotation
    JOINT chest
    {
      OFFSET 0 11.7043 -0.48768
      CHANNELS 3 Zrotation Xrotation Yrotation
      JOINT neck
      {
        OFFSET 0 22.1894 -2.19456
        CHANNELS 3 Zrotation Xrotation Yrotation
        JOINT head
        {
          OFFSET -0.24384 7.07133 1.2192
          CHANNELS 3 Zrotation Xrotation Yrotation
          JOINT leftEye
          {
            OFFSET 4.14528 8.04674 8.04672
            CHANNELS 3 Zrotation Xrotation Yrotation
            End Site
            {
              OFFSET 1 0 0
            }
          }
          JOINT rightEye
          {
            OFFSET -3.6576 8.04674 8.04672
            CHANNELS 3 Zrotation Xrotation Yrotation
            End Site
            {
              OFFSET 1 0 0
            }
          }
        }
      }
      JOINT rCollar
      {
        OFFSET -2.68224 19.2634 -4.8768
        CHANNELS 3 Zrotation Xrotation Yrotation
        JOINT rShldr
        {
          OFFSET -8.77824 -1.95073 1.46304
          CHANNELS 3 Zrotation Xrotation Yrotation
          JOINT rForeArm
          {
            OFFSET -28.1742 -1.7115 0.48768
            CHANNELS 3 Zrotation Xrotation Yrotation
            JOINT rHand
            {
              OFFSET -22.5879 0.773209 7.07136
              CHANNELS 3 Zrotation Xrotation Yrotation
              JOINT rThumb1
              {
                OFFSET -1.2192 -0.487915 3.41376
                CHANNELS 3 Zrotation Xrotation Yrotation
                JOINT rThumb2
                {
                  OFFSET -3.37035 -0.52449 3.41376
                  CHANNELS 3 Zrotation Xrotation Yrotation
                  End Site
                  {
                    OFFSET -1.78271 -1.18214 1.43049
                  }
                }
              }
              JOINT rIndex1
              {
                OFFSET -7.75947 0.938293 5.60832
                CHANNELS 3 Zrotation Xrotation Yrotation
                JOINT rIndex2
                {
                  OFFSET -2.54057 -0.884171 1.56538
                  CHANNELS 3 Zrotation Xrotation Yrotation
                  End Site
                  {
                    OFFSET -1.62519 -0.234802 1.16502
                  }
                }
              }
              JOINT rMid1
              {
                OFFSET -8.24714 1.18213 3.41376
                CHANNELS 3 Zrotation Xrotation Yrotation
                JOINT rMid2
                {
                  OFFSET -3.10165 -0.590103 1.0647
                  CHANNELS 3 Zrotation Xrotation Yrotation
                  End Site
                  {
                    OFFSET -2.48547 -0.328903 0.83742
                  }
                }
              }
              JOINT rRing1
              {
                OFFSET -8.82822 0.546677 1.51678
                CHANNELS 3 Zrotation Xrotation Yrotation
                JOINT rRing2
                {
                  OFFSET -2.60934 -0.819778 -0.0198488
                  CHANNELS 3 Zrotation Xrotation Yrotation
                  End Site
                  {
                    OFFSET -2.33842 -0.294052 0.168128
                  }
                }
              }
              JOINT rPinky1
              {
                OFFSET -8.27202 -0.0477905 -0.4584
                CHANNELS 3 Zrotation Xrotation Yrotation
                JOINT rPinky2
                {
                  OFFSET -1.82734 -0.647385 -0.700984
                  CHANNELS 3 Zrotation Xrotation Yrotation
                  End Site
                  {
                    OFFSET -1.69225 -0.51767 -0.607171
                  }
                }
              }
            }
          }
        }
      }
      JOINT lCollar
      {
        OFFSET 2.68224 19.2634 -4.8768
        CHANNELS 3 Zrotation Xrotation Yrotation
        JOINT lShldr
        {
          OFFSET 8.77824 -1.95073 1.46304
          CHANNELS 3 Zrotation Xrotation Yrotation
          JOINT lForeArm
          {
            OFFSET 28.1742 -1.7115 0.48768
            CHANNELS 3 Zrotation Xrotation Yrotation
            JOINT lHand
            {
              OFFSET 22.5879 0.773209 7.07136
              CHANNELS 3 Zrotation Xrotation Yrotation
              JOINT lThumb1
              {
                OFFSET 1.2192 -0.487915 3.41376
                CHANNELS 3 Zrotation Xrotation Yrotation
                JOINT lThumb2
                {
                  OFFSET 3.37035 -0.52449 3.41376
                  CHANNELS 3 Zrotation Xrotation Yrotation
                  End Site
                  {
                    OFFSET 1.78271 -1.18214 1.43049
                  }
                }
              }
              JOINT lIndex1
              {
                OFFSET 7.75947 0.938293 5.60832
                CHANNELS 3 Zrotation Xrotation Yrotation
                JOINT lIndex2
                {
                  OFFSET 2.54057 -0.884171 1.56538
                  CHANNELS 3 Zrotation Xrotation Yrotation
                  End Site
                  {
                    OFFSET 1.62519 -0.234802 1.16502
                  }
                }
              }
              JOINT lMid1
              {
                OFFSET 8.24714 1.18213 3.41376
                CHANNELS 3 Zrotation Xrotation Yrotation
                JOINT lMid2
                {
                  OFFSET 3.10165 -0.590103 1.0647
                  CHANNELS 3 Zrotation Xrotation Yrotation
                  End Site
                  {
                    OFFSET 2.48547 -0.328903 0.83742
                  }
                }
              }
              JOINT lRing1
              {
                OFFSET 8.82822 0.546677 1.51678
                CHANNELS 3 Zrotation Xrotation Yrotation
                JOINT lRing2
                {
                  OFFSET 2.60934 -0.819778 -0.0198488
                  CHANNELS 3 Zrotation Xrotation Yrotation
                  End Site
                  {
                    OFFSET 2.33842 -0.294052 0.168128
                  }
                }
              }
              JOINT lPinky1
              {
                OFFSET 8.27202 -0.0477905 -0.4584
                CHANNELS 3 Zrotation Xrotation Yrotation
                JOINT lPinky2
                {
                  OFFSET 1.82734 -0.647385 -0.700984
                  CHANNELS 3 Zrotation Xrotation Yrotation
                  End Site
                  {
                    OFFSET 1.69225 -0.51767 -0.607171
                  }
                }
              }
            }
          }
        }
      }
    }
  }
  JOINT rButtock
  {
    OFFSET -8.77824 4.35084 1.2192
    CHANNELS 3 Zrotation Xrotation Yrotation
    JOINT rThigh
    {
      OFFSET 0 -1.70687 -2.19456
      CHANNELS 3 Zrotation Xrotation Yrotation
      JOINT rShin
      {
        OFFSET 0 -36.8199 0.73152
        CHANNELS 3 Zrotation Xrotation Yrotation
        JOINT rFoot
        {
          OFFSET 0.73152 -45.1104 -5.12064
          CHANNELS 3 Zrotation Xrotation Yrotation
          End Site
          {
            OFFSET -1.1221 -3.69964 12.103
          }
        }
      }
    }
  }
  JOINT lButtock
  {
    OFFSET 8.77824 4.35084 1.2192
    CHANNELS 3 Zrotation Xrotation Yrotation
    JOINT lThigh
    {
      OFFSET 0 -1.70687 -2.19456
      CHANNELS 3 Zrotation Xrotation Yrotation
      JOINT lShin
      {
        OFFSET 0 -36.8199 0.73152
        CHANNELS 3 Zrotation Xrotation Yrotation
        JOINT lFoot
        {
          OFFSET -0.73152 -45.1104 -5.12064
          CHANNELS 3 Zrotation Xrotation Yrotation
          End Site
          {
            OFFSET 1.1221 -3.69964 12.103
          }
        }
      }
    }
  }
}
MOTION
Frames:	8
Frame Time:	0.00833333
-108.799 70.9257 -12.1398 -193.451 59.1344 -165.892 -15.8719 34.8444 -6.45588 4.18594 -2.90737 -1.69545 -13.1679 13.694 -8.71735 61.9141 -58.4659 20.3939 -0.0 0.0 0.0 -0.0 0.0 0.0 -5.34527e-13 -2.60509e-13 8.41558e-14 70.9948 15.405 9.10435 20.5025 -13.6547 -39.9218 -0.428642 -18.3406 -2.66953 6.84799e-09 6.2274e-09 -1.68671e-09 1.18592e-08 1.0719e-08 -2.82927e-09 6.84799e-09 6.2274e-09 -1.68671e-09 7.73091 5.47488 0.417314 6.84799e-09 6.22739e-09 -1.6867e-09 2.90554 0.965183 0.102902 6.848e-09 6.2274e-09 -1.68671e-09 10.2786 0.731801 0.0259123 6.84798e-09 6.2274e-09 -1.6867e-09 2.22167 -0.733487 -0.20892 -5.34682e-13 -2.60494e-13 8.39695e-14 -60.4288 3.96396 -50.7519 21.3759 -14.787 -42.3229 0.0626393 -6.62916 0.936266 -2.60968e-11 4.68983e-09 1.87179e-09 -5.95135e-11 8.13352e-09 3.2485e-09 -2.60929e-11 4.68984e-09 1.87181e-09 -7.73091 5.47488 -0.417314 -2.60961e-11 4.68984e-09 1.8718e-09 -2.90554 0.965183 -0.102902 -2.6097e-11 4.68984e-09 1.87179e-09 -10.2786 0.731801 -0.0259123 -2.60902e-11 4.68984e-09 1.87178e-09 -2.22167 -0.733487 0.20892 -2.03217e-16 0.0 -3.88251e-19 -56.4389 -78.3494 -72.1161 -3.88694 78.7396 5.22988 -1.98794 -10.9393 -6.47031 2.03217e-16 0.0 3.88251e-19 4.11245 -0.0384929 4.24023 -0.208673 30.6334 -2.22835 1.26992 1.40852 1.71959
-106.334 71.407 -13.6711 -194.8 60.0932 -166.985 -16.0138 34.4963 -5.84297 3.82123 -2.75157 -1.57509 -13.134 13.7955 -8.52337 60.581 -58.8952 20.1886 -0.0 0.0 0.0 -0.0 0.0 0.0 -6.39642e-14 -6.74049e-13 -1.85155e-13 70.7546 15.5243 8.87477 20.5522 -13.7197 -40.0469 -0.480391 -19.3838 -2.83301 3.60378e-09 4.27047e-09 -1.87149e-09 6.26401e-09 7.38042e-09 -3.19755e-09 3.60378e-09 4.27046e-09 -1.8715e-09 7.73091 5.47488 0.417314 3.60378e-09 4.27046e-09 -1.87149e-09 2.90554 0.965183 0.102902 3.60379e-09 4.27046e-09 -1.87149e-09 10.2786 0.731801 0.0259123 3.60378e-09 4.27046e-09 -1.87149e-09 2.22167 -0.733487 -0.20892 -6.40824e-14 -6.7401e-13 -1.85323e-13 -59.5994 4.79165 -49.4966 21.8514 -15.469 -43.6284 0.0385944 -5.09682 0.718601 1.21393e-09 1.95777e-09 1.22614e-09 2.08908e-09 3.39174e-09 2.12488e-09 1.21393e-09 1.95777e-09 1.22616e-09 -7.73091 5.47488 -0.417314 1.21393e-09 1.95777e-09 1.22614e-09 -2.90554 0.965183 -0.102902 1.21393e-09 1.95777e-09 1.22614e-09 -10.2786 0.731801 -0.0259123 1.21393e-09 1.95777e-09 1.22613e-09 -2.22167 -0.733487 0.20892 -2.03217e-16 0.0 -3.88251e-19 -52.0253 -78.6427 -69.82 -2.51771 74.3932 3.94212 -1.80137 -11.1713 -6.31039 2.03217e-16 0.0 3.88251e-19 2.39494 2.3927 1.62832 -0.236439 27.8715 -2.07122 1.023 5.46253 2.55776
-103.877 71.7745 -15.2072 -196.53 60.9672 -168.652 -16.3012 34.2405 -5.09045 3.53622 -2.56769 -1.42747 -13.1057 13.9355 -8.37691 59.2138 -59.3731 19.8615 -0.0 0.0 0.0 -0.0 0.0 0.0 4.17134e-13 -1.06267e-12 -4.52125e-13 70.384 15.6036 8.77814 20.5585 -13.7291 -40.059 -0.540589 -20.4687 -3.00619 5.50151e-11 1.93261e-09 -1.84294e-09 1.38042e-10 3.38345e-09 -3.20098e-09 5.50112e-11 1.93262e-09 -1.84295e-09 7.73091 5.47488 0.417314 5.50122e-11 1.93262e-09 -1.84294e-09 2.90554 0.965183 0.102902 5.50231e-11 1.93262e-09 -1.84294e-09 10.2786 0.731801 0.0259123 5.50121e-11 1.93262e-09 -1.84294e-09 2.22167 -0.733487 -0.20892 4.17053e-13 -1.0626e-12 -4.52277e-13 -58.5868 5.8669 -48.4481 22.3011 -16.1823 -44.7585 0.0204982 -3.49588 0.492487 2.46662e-09 -9.27667e-10 5.05423e-10 4.26085e-09 -1.61584e-09 8.71025e-10 2.46662e-09 -9.27666e-10 5.05439e-10 -7.73091 5.47488 -0.417314 2.46662e-09 -9.27664e-10 5.05423e-10 -2.90554 0.965183 -0.102902 2.46662e-09 -9.27664e-10 5.05424e-10 -10.2786 0.731801 -0.0259123 2.46663e-09 -9.27663e-10 5.05415e-10 -2.22167 -0.733487 0.20892 -2.03217e-16 0.0 -3.88251e-19 -46.4114 -78.4908 -66.2277 -1.7901 70.3763 3.27703 -1.61979 -11.1114 -6.19652 2.03217e-16 0.0 3.88251e-19 0.852692 4.48658 -0.656585 -0.238934 25.9161 -1.93034 0.73093 8.96101 2.83521
-101.503 71.8619 -16.7683 -198.709 61.7057 -170.831 -16.6408 34.0904 -4.44164 3.40506 -2.3657 -1.2981 -13.1741 14.0607 -8.27942 58.086 -59.7932 19.5473 -0.0 0.0 0.0 -0.0 0.0 0.0 7.18836e-13 -1.19434e-12 -5.86812e-13 69.8566 15.5984 8.92451 20.5227 -13.6837 -39.9644 -0.592757 -21.3329 -3.14641 -2.59408e-09 -1.78706e-10 -1.35614e-09 -4.44557e-09 -2.40793e-10 -2.39794e-09 -2.59408e-09 -1.78702e-10 -1.35615e-09 7.73091 5.47488 0.417314 -2.59408e-09 -1.78702e-10 -1.35614e-09 2.90554 0.965183 0.102902 -2.59407e-09 -1.78702e-10 -1.35614e-09 10.2786 0.731801 0.0259123 -2.59408e-09 -1.78702e-10 -1.35613e-09 2.22167 -0.733487 -0.20892 7.18772e-13 -1.19426e-12 -5.86961e-13 -57.7171 6.93806 -47.3977 22.8429 -17.0775 -46.1329 0.0120657 -3.13456 0.440979 3.18485e-09 -2.96946e-09 -1.34572e-10 5.50825e-09 -5.15751e-09 -2.40168e-10 3.18485e-09 -2.96946e-09 -1.34557e-10 -7.73091 5.47488 -0.417314 3.18486e-09 -2.96946e-09 -1.34572e-10 -2.90554 0.965183 -0.102902 3.18485e-09 -2.96946e-09 -1.34572e-10 -10.2786 0.731801 -0.0259123 3.18486e-09 -2.96946e-09 -1.34579e-10 -2.22167 -0.733487 0.20892 -2.03217e-16 0.0 -3.88251e-19 -40.8595 -77.9895 -62.2785 -1.37958 67.1467 2.89199 -1.30441 -10.7944 -5.676 2.03217e-16 0.0 3.88251e-19 -0.374921 5.96594 -1.98523 -0.217562 25.3785 -1.84191 0.601758 11.5531 2.12186
-99.2259 71.9079 -18.3345 -201.272 62.3697 -173.256 -17.1709 34.1317 -3.91582 3.52961 -2.11947 -1.19527 -13.3868 14.1625 -8.24022 57.2891 -60.1524 19.2872 -0.0 0.0 0.0 -0.0 0.0 0.0 7.81159e-13 -8.98551e-13 -5.25321e-13 69.0836 15.4851 9.40835 20.4303 -13.5637 -39.7313 -0.629523 -21.9277 -3.24366 -4.27123e-09 -2.34557e-09 5.30767e-11 -7.37271e-09 -3.98811e-09 1.54616e-11 -4.27123e-09 -2.34557e-09 5.30677e-11 7.73091 5.47488 0.417314 -4.27123e-09 -2.34557e-09 5.30776e-11 2.90554 0.965183 0.102902 -4.27123e-09 -2.34557e-09 5.30749e-11 10.2786 0.731801 0.0259123 -4.27123e-09 -2.34557e-09 5.30831e-11 2.22167 -0.733487 -0.20892 7.81084e-13 -8.98487e-13 -5.25488e-13 -57.0283 8.01392 -46.3258 23.4601 -18.1324 -47.8886 0.0126892 -4.6202 0.649267 3.17574e-09 -3.94209e-09 -7.31031e-10 5.49842e-09 -6.83967e-09 -1.27117e-09 3.17573e-09 -3.94209e-09 -7.31012e-10 -7.73091 5.47488 -0.417314 3.17574e-09 -3.94209e-09 -7.31029e-10 -2.90554 0.965183 -0.102902 3.17574e-09 -3.94209e-09 -7.3103e-10 -10.2786 0.731801 -0.0259123 3.17574e-09 -3.94209e-09 -7.31036e-10 -2.22167 -0.733487 0.20892 -2.03217e-16 0.0 -3.88251e-19 -36.1781 -76.9769 -58.7116 -1.15495 64.8417 2.64474 -0.654098 -9.69842 -4.15716 2.03217e-16 0.0 3.88251e-19 -1.50136 6.82508 -2.00774 -0.183843 26.5214 -1.82341 0.866589 12.9356 -0.412821
-96.778 71.7591 -19.9109 -204.021 62.528 -176.37 -17.896 34.3305 -3.3932 3.84267 -1.83328 -1.09602 -13.687 14.2675 -8.25568 56.6699 -60.4987 19.0063 -0.0 0.0 0.0 -0.0 0.0 0.0 7.08512e-13 -3.35271e-13 -3.46702e-13 68.1099 15.29 10.1483 20.2833 -13.3733 -39.3681 -0.657701 -22.3861 -3.31882 -5.53575e-09 -4.74393e-09 2.12114e-09 -9.60282e-09 -8.15152e-09 3.57497e-09 -5.53573e-09 -4.74392e-09 2.12113e-09 7.73091 5.47488 0.417314 -5.53574e-09 -4.74393e-09 2.12114e-09 2.90554 0.965183 0.102902 -5.53574e-09 -4.74393e-09 2.12114e-09 10.2786 0.731801 0.0259123 -5.53575e-09 -4.74393e-09 2.12115e-09 2.22167 -0.733487 -0.20892 7.08409e-13 -3.3523e-13 -3.46901e-13 -56.3653 9.20492 -45.3389 24.0707 -19.244 -49.8151 0.0422444 -7.16855 1.01032 2.74675e-09 -4.36384e-09 -1.3408e-09 4.76344e-09 -7.56317e-09 -2.32243e-09 2.74673e-09 -4.36383e-09 -1.34077e-09 -7.73091 5.47488 -0.417314 2.74675e-09 -4.36384e-09 -1.34079e-09 -2.90554 0.965183 -0.102902 2.74674e-09 -4.36384e-09 -1.3408e-09 -10.2786 0.731801 -0.0259123 2.74675e-09 -4.36384e-09 -1.3408e-09 -2.22167 -0.733487 0.20892 -2.03217e-16 0.0 -3.88251e-19 -32.2133 -75.4461 -55.5604 -1.04176 63.2142 2.47036 0.099895 -7.96585 -2.05796 2.03217e-16 0.0 3.88251e-19 -2.64773 7.18952 -1.1134 -0.139189 28.9859 -1.85079 1.43153 13.3202 -4.31896
-94.3044 71.5277 -21.4247 -206.396 62.4819 -179.23 -18.5203 34.525 -2.9098 4.16561 -1.56274 -0.998905 -14.0086 14.375 -8.30786 56.1441 -60.8027 18.6727 -0.0 0.0 0.0 -0.0 0.0 0.0 5.57548e-13 2.31836e-13 -1.35434e-13 67.1093 15.0435 10.9908 20.1084 -13.1489 -38.9422 -0.678082 -22.7187 -3.37348 -6.13075e-09 -6.60715e-09 4.00135e-09 -1.06731e-08 -1.13957e-08 6.82005e-09 -6.13073e-09 -6.60715e-09 4.00133e-09 7.73091 5.47488 0.417314 -6.13075e-09 -6.60716e-09 4.00135e-09 2.90554 0.965183 0.102902 -6.13075e-09 -6.60716e-09 4.00135e-09 10.2786 0.731801 0.0259123 -6.13076e-09 -6.60716e-09 4.00135e-09 2.22167 -0.733487 -0.20892 5.57411e-13 2.31853e-13 -1.35665e-13 -55.7559 10.3976 -44.3952 24.6666 -20.4084 -51.8267 0.110658 -10.0005 1.41832 2.10126e-09 -4.35344e-09 -1.83757e-09 3.65319e-09 -7.53797e-09 -3.17807e-09 2.10124e-09 -4.35342e-09 -1.83754e-09 -7.73091 5.47488 -0.417314 2.10126e-09 -4.35344e-09 -1.83756e-09 -2.90554 0.965183 -0.102902 2.10124e-09 -4.35344e-09 -1.83757e-09 -10.2786 0.731801 -0.0259123 2.10126e-09 -4.35344e-09 -1.83757e-09 -2.22167 -0.733487 0.20892 -2.03217e-16 0.0 -3.88251e-19 -28.4951 -73.7306 -52.4072 -0.997029 62.1433 2.3371 0.603297 -6.65299 -0.408182 2.03217e-16 0.0 3.88251e-19 -3.54193 6.98842 0.225096 -0.0710593 32.4503 -1.89997 1.97476 13.1734 -8.10433
-91.909 71.2603 -22.8088 -207.932 62.6069 -180.991 -18.7409 34.5536 -2.50562 4.32013 -1.36344 -0.902471 -14.2859 14.4847 -8.37875 55.6278 -61.0345 18.2545 -0.0 0.0 0.0 -0.0 0.0 0.0 3.84919e-13 5.39104e-13 2.40032e-14 66.2526 14.7773 11.783 19.934 -12.929 -38.5199 -0.691853 -22.9357 -3.40939 -5.79938e-09 -7.16861e-09 4.84701e-09 -1.01207e-08 -1.23853e-08 8.29017e-09 -5.79935e-09 -7.16861e-09 4.84699e-09 7.73091 5.47488 0.417314 -5.79937e-09 -7.16862e-09 4.84701e-09 2.90554 0.965183 0.102902 -5.79938e-09 -7.16862e-09 4.847e-09 10.2786 0.731801 0.0259123 -5.79938e-09 -7.16862e-09 4.84701e-09 2.22167 -0.733487 -0.20892 3.84751e-13 5.39104e-13 2.37548e-14 -55.2236 11.4721 -43.4443 25.2473 -21.6373 -53.8402 0.190413 -12.3378 1.76155 1.44266e-09 -4.02962e-09 -2.09504e-09 2.51752e-09 -6.97401e-09 -3.62219e-09 1.44265e-09 -4.0296e-09 -2.09501e-09 -7.73091 5.47488 -0.417314 1.44266e-09 -4.02962e-09 -2.09503e-09 -2.90554 0.965183 -0.102902 1.44265e-09 -4.02962e-09 -2.09504e-09 -10.2786 0.731801 -0.0259123 1.44266e-09 -4.02962e-09 -2.09504e-09 -2.22167 -0.733487 0.20892 -2.03217e-16 0.0 -3.88251e-19 -24.4606 -72.129 -48.7184 -0.991748 61.5081 2.22757 0.693783 -6.8348 -0.209974 2.03217e-16 0.0 3.88251e-19 -3.87862 6.15396 1.53084 0.0284319 36.5931 -1.94473 2.27434 13.0425 -10.3001
